<svg width="48" height="48" viewBox="0 0 48 48" fill="none" xmlns="http://www.w3.org/2000/svg">
<path d="M11.3638 14.4688H14.1755V17.2804H11.3638V14.4688Z" fill="#5A73EF"/>
<path d="M11.3638 25.7158H14.1755V28.5275H11.3638V25.7158Z" fill="#5A73EF"/>
<path d="M36.2256 27.4835C37.2631 27.4835 38.2697 27.6194 39.2276 27.8753V4.21785C39.2276 3.44183 38.5978 2.81201 37.8217 2.81201H33.5995C33.5995 6.47188 30.622 9.44944 26.9621 9.44944H15.1943C13.3648 9.44944 11.705 8.70529 10.5035 7.50282C9.30103 6.3013 8.55687 4.64148 8.55687 2.81201H4.33467C3.55865 2.81201 2.92883 3.44183 2.92883 4.21785V39.5512H24.5769C24.3107 33.0694 29.5732 27.4835 36.2256 27.4835ZM29.2321 11.6575H31.2612C32.0372 11.6575 32.667 12.2874 32.667 13.0634C32.667 13.8394 32.0372 14.4692 31.2612 14.4692H29.2321C28.456 14.4692 27.8262 13.8394 27.8262 13.0634C27.8262 12.2874 28.456 11.6575 29.2321 11.6575ZM21.2047 11.6575H24.171C24.9471 11.6575 25.5769 12.2874 25.5769 13.0634C25.5769 13.8394 24.9471 14.4692 24.171 14.4692H21.2047C20.4287 14.4692 19.7989 13.8394 19.7989 13.0634C19.7989 12.2874 20.4287 11.6575 21.2047 11.6575ZM21.2047 17.2809H31.2612C32.0372 17.2809 32.667 17.9107 32.667 18.6867C32.667 19.4637 32.0372 20.0926 31.2612 20.0926H21.2047C20.4287 20.0926 19.7989 19.4637 19.7989 18.6867C19.7989 17.9107 20.4287 17.2809 21.2047 17.2809ZM16.9872 29.9334C16.9872 30.7104 16.3574 31.3393 15.5814 31.3393H9.95802C9.182 31.3393 8.55219 30.7104 8.55219 29.9334V24.3101C8.55219 23.5341 9.182 22.9042 9.95802 22.9042H15.5814C16.3574 22.9042 16.9872 23.5341 16.9872 24.3101V29.9334ZM16.9872 18.6867C16.9872 19.4637 16.3574 20.0926 15.5814 20.0926H9.95802C9.182 20.0926 8.55219 19.4637 8.55219 18.6867V13.0634C8.55219 12.2874 9.182 11.6575 9.95802 11.6575H15.5814C16.3574 11.6575 16.9872 12.2874 16.9872 13.0634V18.6867ZM19.7989 24.4619C19.7989 23.6859 20.4287 23.0561 21.2047 23.0561H31.2612C32.0372 23.0561 32.667 23.6859 32.667 24.4619C32.667 25.2379 32.0372 25.8678 31.2612 25.8678H21.2047C20.4287 25.8678 19.7989 25.2379 19.7989 24.4619Z" fill="#5A73EF"/>
<path d="M15.1943 6.63743H26.9621C29.0718 6.63743 30.7879 4.92137 30.7879 2.81168V1.40584C30.7879 0.629815 30.159 0 29.3821 0H12.7744C11.9975 0 11.3686 0.629815 11.3686 1.40584V2.81168C11.3686 4.92137 13.0847 6.63743 15.1943 6.63743Z" fill="#5A73EF"/>
<path d="M36.2257 30.2949C31.3483 30.2949 27.3801 34.2631 27.3801 39.1405C27.3801 44.03 31.3437 47.986 36.2257 47.986C41.2042 47.986 45.0712 43.9119 45.0712 39.1405C45.0712 34.3681 41.2033 30.2949 36.2257 30.2949ZM40.7421 37.9633L36.399 42.3064C35.8498 42.8556 34.9585 42.8537 34.4112 42.3064L31.7101 39.6044C31.1609 39.0561 31.1609 38.1657 31.7101 37.6165C32.2584 37.0673 33.1487 37.0673 33.698 37.6165L35.4056 39.3242L38.7534 35.9754C39.3026 35.4262 40.1929 35.4262 40.7421 35.9754C41.2914 36.5247 41.2914 37.4141 40.7421 37.9633Z" fill="#5A73EF"/>
<path d="M28.6491 47.9997C24.2301 47.9988 16.8195 47.9857 4.33467 47.9857C3.55865 47.9857 2.92883 47.3558 2.92883 46.5798V42.3623H25.0174C25.653 44.5875 26.9439 46.5462 28.6491 47.9997Z" fill="#5A73EF"/>
</svg>
