<svg width="48" height="48" viewBox="0 0 48 48" fill="none" xmlns="http://www.w3.org/2000/svg">
<g clip-path="url(#clip0_296_4741)">
<path d="M32.9772 47.4152C33.6723 47.8435 34.547 47.852 35.2475 47.4327C36.707 46.5593 38.9141 45.0932 41.1144 43.0817C43.1474 41.2233 44.7585 39.2733 45.9028 37.2863C53.2474 24.3356 39.2424 19.0611 35.4003 27.5744C35.2348 27.9956 34.8947 28.3322 34.458 28.4509C33.7351 28.6473 33.0205 28.2619 32.7653 27.6039C31.7988 25.11 29.3454 23.4365 26.6673 23.444C22.8711 23.3843 20.1146 26.8914 20.1891 30.6082C20.2305 38.6868 29.1228 45.0401 32.9772 47.4152Z" fill="#5A73EF"/>
<path d="M19.9757 39.0436C18.896 37.2956 18.1495 35.5227 17.7417 33.7446C16.8205 33.7444 14.4621 33.6277 12.0935 31.3235C11.5492 30.7816 11.5037 29.8942 12.0293 29.3344C12.5772 28.7508 13.4948 28.7418 14.0542 29.3047C15.3991 30.6584 16.8194 30.8912 17.3823 30.928C17.379 30.7808 17.3722 30.6335 17.3765 30.4865C17.3833 29.3581 17.567 28.2502 17.9085 27.2082V15.1623H16.8027C14.8658 15.1623 13.2877 16.7276 13.2667 18.6596C13.2587 19.4038 12.7051 20.0489 11.9627 20.1017C11.1391 20.1604 10.4527 19.5095 10.4527 18.6984C10.4527 17.3849 10.8536 16.1632 11.5395 15.1494C11.5646 15.1077 11.5919 15.0669 11.6218 15.0272C12.9518 13.2639 12.537 11.1216 11.3659 10.0455C9.99918 8.72687 11.7322 6.7248 13.2042 7.91432C14.542 9.1059 15.2348 10.7999 15.2516 12.5408C15.7483 12.4157 16.2677 12.3484 16.8027 12.3484H17.9087V2.0201C17.9087 1.27658 17.3977 0.6337 16.6755 0.456801C14.2965 -0.161501 11.7003 1.1477 10.7419 3.29638C10.6352 3.52345 10.394 3.65411 10.1453 3.62035C6.72674 3.13205 3.58195 5.86826 3.60971 9.3266C3.62041 9.56222 3.48937 9.7802 3.27552 9.88093C-0.866315 11.7999 -1.14451 17.7512 2.81011 20.0436C3.19232 20.2699 3.17506 20.8287 2.78394 21.0393C-0.950638 23.0082 -0.800001 28.5485 3.0385 30.3115C3.26558 30.4182 3.39623 30.6594 3.36237 30.9081C2.87342 34.3247 5.61085 37.4729 9.06863 37.4438C9.30565 37.4366 9.51941 37.5796 9.61152 37.7982C10.4458 39.7692 12.4276 41.069 14.7786 41.069L14.8275 41.0724C17.138 41.0724 18.8576 40.0413 19.9907 39.0673C19.9857 39.0593 19.9806 39.0515 19.9757 39.0436Z" fill="#5A73EF"/>
<path d="M20.7226 16.0538C22.417 15.1919 23.317 13.4662 23.2277 11.9209C23.1829 11.1452 23.7754 10.48 24.5511 10.4352C25.3273 10.3902 25.9921 10.9829 26.0369 11.7586C26.1453 13.6351 25.4827 15.4557 24.1709 16.8851C23.2313 17.909 22.0353 18.6592 20.7225 19.0655V22.8721C22.3664 21.4224 24.4546 20.6305 26.6645 20.6305C28.5894 20.6289 30.4422 21.204 32.0185 22.3025C32.8078 22.8526 33.4999 23.5126 34.0774 24.2603C34.6193 23.5586 35.2634 22.9354 35.993 22.4064C35.6858 21.9189 35.343 21.4901 35.0302 21.1682C34.7526 20.8825 34.8367 20.4071 35.201 20.2461C36.9819 19.4593 38.2546 17.8058 38.2546 15.7257C38.2546 13.6469 37.0321 11.8538 35.267 11.0254C35.0398 10.9187 34.9091 10.6774 34.9429 10.4287C35.4339 7.00086 32.6775 3.84858 29.21 3.89332C28.9832 3.89463 28.7795 3.76397 28.6823 3.55903C27.5851 1.10298 24.5263 -0.342128 21.8531 0.498095C21.178 0.697036 20.7227 1.32866 20.7227 2.0325C20.7226 2.03241 20.7226 16.0538 20.7226 16.0538Z" fill="#5A73EF"/>
</g>
<defs>
<clipPath id="clip0_296_4741">
<rect width="48" height="48" fill="white"/>
</clipPath>
</defs>
</svg>
